<svg width="134.18" height="71.973" viewBox="0 0 134.18 71.973" xmlns="http://www.w3.org/2000/svg"><g id="svgGroup" stroke-linecap="round" fill-rule="evenodd" font-size="9pt" stroke="#000000" stroke-width="0.25mm" fill="#000000" style="stroke:#000000;stroke-width:0.25mm;fill:#000000"><path d="M 102.93 44.629 L 122.266 0 L 134.18 0 L 134.18 71.973 L 122.266 71.973 L 122.266 22.461 L 106.152 62.5 L 102.93 62.5 L 102.93 44.629 Z M 67.676 71.973 L 67.676 0 L 79.59 0 L 98.926 44.434 L 98.926 62.5 L 95.801 62.5 L 79.59 22.461 L 79.59 71.973 L 67.676 71.973 Z M 20.313 47.949 L 40.234 0 L 53.613 0 L 32.227 42.676 L 32.227 71.973 L 20.313 71.973 L 20.313 47.949 Z M 0 0 L 13.379 0 L 24.219 28.027 L 18.945 40.82 L 0 0 Z" vector-effect="non-scaling-stroke"/></g></svg>